HIERARCHY
ROOT Hips
{
  OFFSET 0 0 0
  CHANNELS 6 Xposition Yposition Zposition Zrotation Yrotation Xrotation
  JOINT LeftThigh
  {
    OFFSET 8.409438 0 -5.917753
    CHANNELS 3 Zrotation Yrotation Xrotation
    JOINT LeftLeg
    {
      OFFSET 0 0 -42.358652
      CHANNELS 3 Zrotation Yrotation Xrotation
      JOINT LeftFoot
      {
        OFFSET 0 0 -39.357303
        CHANNELS 3 Zrotation Yrotation Xrotation
      }
    }
  }
  JOINT RightThigh
  {
    OFFSET -8.409438 0 -5.917753
    CHANNELS 3 Zrotation Yrotation Xrotation
    JOINT RightLeg
    {
      OFFSET 0 0 -42.358652
      CHANNELS 3 Zrotation Yrotation Xrotation
      JOINT RightFoot
      {
        OFFSET 0 0 -39.357303
        CHANNELS 3 Zrotation Yrotation Xrotation
      }
    }
  }
  JOINT SpineLow
  {
    OFFSET 0 0 4.719101
    CHANNELS 3 Zrotation Yrotation Xrotation
    JOINT SpineMid
    {
      OFFSET 0 0 12.899191
      CHANNELS 3 Zrotation Yrotation Xrotation
      JOINT Chest
      {
        OFFSET 0 0 12.899191
        CHANNELS 3 Zrotation Yrotation Xrotation
        JOINT LeftShoulder
        {
          OFFSET 7.550562 1.41573 9.438202
          CHANNELS 3 Zrotation Yrotation Xrotation
          JOINT LeftArm
          {
            OFFSET 9.155056 0 4.247191
            CHANNELS 3 Zrotation Yrotation Xrotation
            JOINT LeftForearm
            {
              OFFSET 0 0 25.771955
              CHANNELS 3 Zrotation Yrotation Xrotation
              JOINT LeftHand
              {
                OFFSET 0 0 25.197169
                CHANNELS 3 Zrotation Yrotation Xrotation
              }
            }
          }
        }
        JOINT RightShoulder
        {
          OFFSET -7.550562 1.41573 9.438202
          CHANNELS 3 Zrotation Yrotation Xrotation
          JOINT RightArm
          {
            OFFSET -9.155056 0 4.247191
            CHANNELS 3 Zrotation Yrotation Xrotation
            JOINT RightForearm
            {
              OFFSET 0 0 -25.771955
              CHANNELS 3 Zrotation Yrotation Xrotation
              JOINT RightHand
              {
                OFFSET 0 0 -25.197169
                CHANNELS 3 Zrotation Yrotation Xrotation
              }
            }
          }
        }
        JOINT Neck
        {
          OFFSET 0 0 15.101124
          CHANNELS 3 Zrotation Yrotation Xrotation
          JOINT Head
          {
            OFFSET 0 0 11.325843
            CHANNELS 3 Zrotation Yrotation Xrotation
            End Site
            {
              OFFSET 0 0 14.157303
            }
          }
        }
      }
    }
  }
}
MOTION
Frames: 14
Frame Time: 0.0
0.0  101.685394  0.0  0.658822  -27.956158  -100.013475  21.034437  -27.880152  -34.311387  5.34207  15.088595  57.798714  1.62987  5.728659  5.333281  -7.671365  20.591368  -0.60523  -0.27839  10.020012  37.437661  0.010459  9.42034  -5.758471  -2.128452  0.635737  2.893881  -5.733892  1.987689  7.849302  -5.733892  1.987689  7.849302  2.100245  23.933725  3.128065  -135.902667  63.320868  -84.655396  -26.955819  -25.293933  86.867796  111.465069  32.000241  -17.007737  7.832093  -9.061025  13.371919  91.158892  24.512559  43.248022  -25.037488  25.848924  -88.59205  55.314145  2.814949  12.69569  10.727165  -2.94497  -5.512355  8.017807  -2.306535  -4.083114  
0.0  101.685394  0.0  0.589092  -27.159604  -99.610882  20.578333  -27.581466  -34.841782  5.194681  15.098225  57.762129  1.74241  5.636904  5.313458  -7.723439  20.439519  -0.510649  -0.524882  9.954268  37.204328  -0.64779  9.544489  -5.74632  -2.224747  0.588429  2.850373  -6.003559  1.866146  7.731379  -6.003559  1.866146  7.731379  2.810605  24.194022  3.197288  -137.820269  63.386167  -85.666272  -27.186923  -25.265504  87.084352  111.268661  31.993026  -17.094872  8.192782  -8.835803  13.252078  91.371573  25.812947  43.0227  -25.169771  25.297149  -89.190823  55.455289  2.756065  13.065638  10.695772  -2.926575  -5.676776  7.993712  -2.295337  -4.206925  
0.0  101.685394  0.0  0.443593  -26.305099  -99.162883  20.111478  -27.339789  -35.390459  4.962575  15.262164  57.629536  1.997773  5.529662  5.360013  -8.170252  20.231644  -0.543813  -0.701868  10.022636  36.933483  -1.008673  9.694746  -5.732729  -2.269669  0.539769  2.818462  -6.132648  1.735761  7.64714  -6.132647  1.735761  7.64714  2.947878  24.365793  3.170016  -139.748  63.389929  -86.823846  -27.385673  -25.256032  87.345971  111.158609  31.953084  -17.319265  8.494371  -8.605395  13.120149  91.342884  27.427766  42.513374  -25.23774  24.732292  -89.719918  55.577182  2.674165  13.646172  10.620888  -2.879438  -5.860854  7.937235  -2.262477  -4.346194  
0.0  101.685394  0.0  0.563604  -25.620974  -98.871573  19.700881  -26.912313  -35.84088  4.817382  15.427373  57.538775  2.131329  5.376943  5.346906  -8.165361  20.248399  -0.475286  -1.038138  10.09157  36.636216  -1.304672  9.74663  -5.702711  -2.267481  0.532832  2.778264  -6.128609  1.712903  7.538023  -6.128609  1.712903  7.538023  3.29649  24.621868  3.279566  -142.160503  63.448053  -88.22189  -27.563545  -25.21884  87.716374  111.159323  31.917602  -17.728619  8.494543  -8.5477  12.901882  91.665355  29.069801  42.096486  -25.385789  24.074636  -90.129036  55.811131  2.515341  14.301666  10.425639  -2.917451  -6.020853  7.789686  -2.29184  -4.466398  
0.0  101.685394  0.0  0.522269  -24.721675  -98.532565  19.121304  -26.588689  -36.29148  4.649235  15.59972  57.475749  2.300386  5.241358  5.329937  -8.658884  20.193315  -0.510171  -1.27464  10.177606  36.319753  -1.48362  9.87692  -5.64067  -2.252026  0.514528  2.751136  -6.089202  1.658763  7.465985  -6.089202  1.658763  7.465985  3.221508  24.619626  3.324383  -144.964  63.297601  -90.182937  -27.732524  -25.13796  88.205115  111.195103  31.956321  -18.417707  8.648273  -8.519624  12.618189  91.611104  30.940465  41.379001  -25.549532  23.444913  -90.390045  55.98485  2.290765  14.988228  10.181193  -2.951263  -6.191869  7.605221  -2.317628  -4.595185  
0.0  101.685394  0.0  0.54313  -23.913746  -98.261318  18.547757  -26.232562  -36.700979  4.583036  15.652529  57.512859  2.35788  5.115915  5.263289  -9.037929  20.187664  -0.494652  -1.437545  10.176567  36.026898  -1.810796  9.968782  -5.599957  -2.223294  0.508614  2.721614  -6.012222  1.636749  7.38666  -6.012222  1.636749  7.38666  3.329628  24.635924  3.378103  -148.371718  63.155641  -92.726296  -27.922672  -24.932798  88.857942  111.190605  32.128398  -19.490529  8.767473  -8.585895  12.218901  91.73645  32.818754  40.644634  -25.753685  22.672689  -90.584748  56.172507  1.981832  15.586247  9.882766  -3.060533  -6.346507  7.379459  -2.39906  -4.710678  
0.0  101.685394  0.0  0.523528  -23.009962  -97.93311  17.921138  -25.847869  -37.156525  4.535145  15.551729  57.552742  2.340007  5.058953  5.223934  -9.627029  20.177572  -0.528208  -1.599192  10.183347  35.664724  -1.966132  10.151096  -5.525857  -2.196421  0.493643  2.691741  -5.941282  1.590277  7.307088  -5.941282  1.590277  7.307088  3.406418  24.61306  3.44271  -152.217967  62.882723  -95.752071  -28.130815  -24.541086  89.677037  111.032388  32.470976  -21.039696  9.111805  -8.557066  11.808316  91.549629  34.928657  39.625088  -25.902291  21.647202  -90.788357  56.409458  1.608169  16.079663  9.649422  -3.085184  -6.496188  7.203473  -2.417476  -4.823639  
0.0  101.685394  0.0  0.573459  -22.079266  -97.700536  17.139626  -25.401406  -37.542949  4.678142  15.264105  57.734256  2.104592  4.980514  5.077382  -10.217413  20.26255  -0.45916  -1.757581  10.158744  35.264034  -2.106714  10.290452  -5.429083  -2.16123  0.493356  2.666269  -5.845911  1.583393  7.238471  -5.845911  1.583394  7.23847  3.588634  24.495447  3.528368  -156.701776  62.499777  -99.409896  -28.333872  -23.96537  90.616901  110.593153  32.906482  -23.168631  9.180853  -8.657332  11.256602  91.628473  37.010824  38.653019  -25.944143  20.428258  -91.015139  56.620471  1.178997  16.542092  9.341854  -3.152538  -6.626891  6.971392  -2.466707  -4.92205  
0.0  101.685394  0.0  0.626534  -20.963464  -97.433728  16.235976  -24.891231  -37.93557  4.769033  15.007984  57.857012  1.953996  4.932501  4.986121  -10.897832  20.414809  -0.373768  -1.945906  10.084716  34.839339  -2.21592  10.438323  -5.306979  -2.108496  0.496763  2.623561  -5.702701  1.583292  7.122913  -5.702701  1.583292  7.122914  3.636085  24.313263  3.837211  -161.402598  62.052383  -103.251282  -28.600191  -23.260612  91.632805  110.016096  33.306187  -25.72356  9.340365  -8.720136  10.930252  91.210538  39.477313  37.343989  -25.948575  19.134988  -91.201902  56.807543  0.681916  17.034581  8.937168  -3.214482  -6.693195  6.666839  -2.509711  -4.972793  
0.0  101.685394  0.0  0.704068  -19.835514  -97.173801  15.282222  -24.367516  -38.328668  4.809138  14.795256  57.944577  1.879821  4.955748  4.925691  -11.469653  20.637228  -0.26933  -2.197971  9.954429  34.41908  -2.337232  10.506994  -5.162753  -2.032193  0.506925  2.575572  -5.494576  1.598883  6.993009  -5.494576  1.598883  6.993009  3.587512  23.98519  4.111681  -166.562998  61.469602  -107.605254  -28.929519  -22.432419  92.715096  109.546891  33.677898  -28.470226  8.453762  -9.176581  10.325968  92.045611  41.631685  36.615005  -26.020855  17.881741  -91.295113  56.911922  0.133797  17.643074  8.424101  -3.315462  -6.723452  6.280713  -2.5802  -4.996565  
0.0  101.685394  0.0  0.823687  -18.604328  -96.781049  14.352332  -23.729174  -38.817827  4.817125  14.665118  57.999554  1.747199  4.931696  4.777655  -12.052571  20.943351  -0.28321  -2.5577  9.758424  33.987573  -2.356633  10.576176  -4.995495  -1.932524  0.528301  2.491275  -5.222502  1.640112  6.763708  -5.222501  1.640113  6.763709  3.50032  23.611041  4.565797  -171.955447  60.813144  -112.107513  -29.2497  -21.530708  93.828408  109.120114  34.035383  -31.346908  8.382658  -9.381287  10.266428  91.563037  44.52477  35.217166  -26.230763  16.761895  -91.286187  56.826467  -0.500106  18.497889  7.795446  -3.432313  -6.684248  5.808087  -2.660359  -4.968823  
0.0  101.685394  0.0  0.982998  -17.42567  -96.472608  13.445585  -23.079275  -39.176917  4.813521  14.463937  58.082338  1.614478  4.962983  4.602509  -12.35877  21.337655  -0.114351  -3.084476  9.48101  33.483929  -2.398509  10.644337  -4.839395  -1.792813  0.561888  2.418735  -4.83966  1.712277  6.566884  -4.83966  1.712277  6.566884  3.149776  23.073228  4.933796  -177.503069  59.882442  -116.914463  -29.563078  -20.540022  95.008165  108.55446  34.291803  -34.279819  8.103943  -9.717948  10.13701  91.295802  47.404447  33.975774  -26.59468  15.786088  -91.145607  56.555312  -1.139041  19.559947  7.053507  -3.568777  -6.638872  5.250348  -2.753997  -4.937092  
0.0  101.685394  0.0  1.145848  -16.101842  -96.180604  12.419799  -22.403265  -39.447362  4.753881  14.427496  58.020741  1.52852  4.979261  4.412236  -12.665879  21.780766  0.191565  -3.794113  9.166393  32.873381  -2.44805  10.707462  -4.696741  -1.666216  0.592089  2.346409  -4.493076  1.77732  6.370787  -4.493076  1.77732  6.370787  3.041048  22.553562  5.379122  176.493065  58.753575  -121.943626  -29.961981  -19.478324  96.315701  107.86498  34.325499  -37.023399  8.011127  -10.010936  10.049601  90.923983  50.380439  32.754027  -27.061249  14.818305  -90.822963  56.405007  -1.64937  20.558536  6.272429  -3.683559  -6.594588  4.663552  -2.831068  -4.907002  
0.0  101.685394  0.0  1.337089  -14.823762  -96.015864  11.368756  -21.780974  -39.540891  5.138078  13.875992  58.442667  0.90107  5.007306  3.838411  -12.861598  22.229629  0.744607  -4.501997  8.90951  32.088028  -2.426256  10.727636  -4.529962  -1.535196  0.62127  2.278742  -4.134483  1.840219  6.187852  -4.134483  1.840219  6.187852  2.811734  22.005502  5.804771  170.616706  57.300075  -127.040377  -30.43195  -18.29985  97.702773  107.161435  34.090241  -39.459602  6.571472  -10.805521  9.459241  92.915057  52.471566  32.871732  -27.606841  13.74342  -90.311565  56.633821  -1.935232  21.167417  5.49204  -3.778141  -6.519706  4.077733  -2.892835  -4.85448  
